<svg width="45" height="45" viewBox="0 0 45 45" fill="none" xmlns="http://www.w3.org/2000/svg">
<path d="M14.2471 0H30.7002C31.5264 0.0703125 32.3262 0.439453 32.8799 1.05469C33.4512 1.66992 33.7676 2.50488 33.7588 3.34863C33.7588 5.98535 33.7588 8.62207 33.7588 11.2588C33.7588 11.7334 33.7588 12.2256 33.6094 12.6826C33.2315 13.9922 31.9658 14.9766 30.5947 15.0117C29.2061 15.0205 27.8174 15.0117 26.4287 15.0117C25.4619 16.1016 24.5127 17.2002 23.5459 18.29C23.0098 18.9316 21.9287 18.9141 21.419 18.2549C20.6016 17.1826 19.793 16.0928 18.9844 15.0117C17.4639 15.0029 15.9346 15.0205 14.4053 15.0029C13.043 14.9678 11.7774 13.9922 11.3906 12.6826C11.25 12.252 11.2412 11.7949 11.25 11.3467C11.25 8.64844 11.25 5.95898 11.25 3.26074C11.25 2.36426 11.6455 1.48535 12.3047 0.878906C12.832 0.37793 13.5264 0.0878906 14.2471 0Z" fill="#F6F6F7"/>
<path d="M0.193359 4.05176C0.624023 2.82129 1.85449 1.90723 3.16406 1.88086C4.9834 1.87207 6.80273 1.88086 8.61328 1.87207C8.49902 2.35547 8.42871 2.84766 8.4375 3.33984C8.4375 6.17871 8.42871 9.02637 8.44629 11.8652C8.47266 13.9131 9.6416 15.8555 11.3643 16.9365C10.415 18.0264 9.46582 19.1162 8.50781 20.1973C7.98047 20.8125 6.93457 20.751 6.43359 20.127C5.60742 19.0547 4.79883 17.9561 3.97266 16.875C3.25195 16.9014 2.49609 16.8838 1.83691 16.5322C0.817383 16.04 0.123047 15.0029 0 13.8779V4.88672C0.0439453 4.60547 0.0966797 4.32422 0.193359 4.05176Z" fill="#FFC933"/>
<path d="M36.3779 1.87207C38.1709 1.87207 39.9551 1.87207 41.748 1.87207C42.7412 1.87207 43.708 2.36426 44.3057 3.15527C44.71 3.67383 44.9385 4.31543 44.9912 4.96582V13.8516C44.8682 15.126 43.9893 16.2861 42.7676 16.6904C42.1963 16.9014 41.5811 16.8662 40.9834 16.875C40.21 17.9297 39.4189 18.9668 38.6367 20.0215C38.2852 20.5225 37.5908 20.7598 37.0107 20.54C36.6328 20.4258 36.3955 20.0918 36.1494 19.8105C35.3057 18.8525 34.4619 17.8857 33.6182 16.9277C34.9893 16.0664 36.0176 14.6689 36.3779 13.0869C36.5801 12.2783 36.5361 11.4434 36.5361 10.626C36.5361 8.2002 36.5361 5.76562 36.5361 3.33984C36.5625 2.84766 36.501 2.35547 36.3779 1.87207Z" fill="#FFC933"/>
<path d="M22.0869 21.5771C23.2031 21.498 24.3369 21.7529 25.3037 22.3154C26.6397 23.0888 27.6328 24.4247 27.9756 25.9277C28.2305 27.0263 28.1426 28.1952 27.7295 29.2411C27.1494 30.7353 25.8926 31.957 24.3721 32.4931C23.4053 32.8359 22.3418 32.9062 21.3398 32.6952C19.8193 32.3788 18.4482 31.3945 17.6572 30.0585C17.0596 29.0566 16.7871 27.8701 16.8926 26.7099C16.9981 25.3915 17.5869 24.1259 18.5361 23.2031C19.4766 22.2538 20.7598 21.665 22.0869 21.5771Z" fill="#F6F6F7"/>
<path d="M7.14551 24.3896C8.23535 24.2841 9.36035 24.6796 10.1338 25.4531C10.9072 26.2089 11.3203 27.3076 11.2412 28.3886C11.1797 29.373 10.6963 30.3134 9.95801 30.955C9.14942 31.6669 8.01563 31.9921 6.95215 31.8251C5.86231 31.6757 4.86035 30.999 4.29785 30.0585C3.73535 29.1445 3.60352 27.9755 3.94629 26.956C4.37696 25.5673 5.69531 24.5126 7.14551 24.3896Z" fill="#F6F6F7"/>
<path d="M37.125 24.3984C38.1357 24.3017 39.1729 24.6181 39.9375 25.2861C40.7549 25.9804 41.2471 27.0527 41.2471 28.1338C41.2559 29.2588 40.7197 30.3662 39.8408 31.0605C39.0059 31.7373 37.8721 32.0185 36.8174 31.8164C35.7539 31.623 34.7871 30.9463 34.251 30.0058C33.7148 29.083 33.6006 27.9316 33.9521 26.9297C34.4004 25.5586 35.6924 24.5215 37.125 24.3984Z" fill="#F6F6F7"/>
<path d="M2.07422 34.7784C2.96191 34.1104 4.07812 33.7412 5.18555 33.75C6.74121 33.75 8.28809 33.75 9.84375 33.75C10.7754 33.75 11.707 34.0137 12.5068 34.4971C11.6191 35.1826 10.8633 36.044 10.3271 37.0371C9.62402 38.3203 9.3252 39.7969 9.37793 41.2471C6.72363 41.2471 4.06934 41.2471 1.40625 41.2471C0.711914 41.2559 0.0966797 40.6846 0 40.0078V38.628C0.0878906 37.125 0.852539 35.6748 2.07422 34.7784Z" fill="#F6F6F7"/>
<path d="M32.4932 34.4971C33.293 34.0137 34.2246 33.75 35.1562 33.75C36.7119 33.75 38.2588 33.75 39.8057 33.75C41.168 33.7412 42.5303 34.2949 43.4883 35.2617C44.3848 36.1494 44.9209 37.3799 45 38.6279V39.9902C44.9297 40.4472 44.6572 40.8691 44.2441 41.0888C43.8926 41.2998 43.4619 41.2471 43.0664 41.2558C40.5879 41.2558 38.1094 41.2558 35.6309 41.2558C35.6396 40.5088 35.6045 39.7617 35.4287 39.0322C35.0244 37.2305 33.9609 35.6045 32.4932 34.4971Z" fill="#F6F6F7"/>
<path d="M15.75 35.877C16.6816 35.543 17.6748 35.6309 18.6416 35.6221C21.6299 35.6221 24.6182 35.6221 27.6064 35.6221C28.6875 35.6133 29.7686 35.9473 30.6475 36.5801C31.667 37.3008 32.4053 38.4082 32.6777 39.6299C32.8623 40.377 32.8008 41.1504 32.8096 41.915C32.8008 42.5039 32.8184 43.084 32.8008 43.6728C32.7832 44.3408 32.2207 44.9033 31.5703 44.9912H13.4473C12.7617 44.9033 12.1729 44.2881 12.1904 43.585C12.1904 42.5566 12.1816 41.5371 12.1992 40.5088C12.2783 38.4346 13.7637 36.501 15.75 35.877Z" fill="#F6F6F7"/>
</svg>
