<svg width="48" height="45" viewBox="0 0 48 45" fill="none" xmlns="http://www.w3.org/2000/svg">
<g clip-path="url(#clip0_1_249)">
<path d="M11.4452 0.116053C12.6477 -0.0316264 13.8713 0.0105677 15.0844 1.91266e-05C21.3819 1.91266e-05 27.6688 1.91266e-05 33.9663 1.91266e-05C35.5485 0.0105677 37.1414 -0.063272 38.7131 0.200441C40.6118 0.4958 42.5 1.20255 43.9663 2.48947C45.3587 3.70255 46.2869 5.39032 46.7616 7.17302C47.1308 8.55487 47.2574 10 47.2574 11.4241C47.2574 16.2764 47.2574 21.1287 47.2574 25.9916C47.289 27.8481 47.2047 29.7258 46.6456 31.4979C46.076 33.3861 44.9367 35.1372 43.3122 36.2764C41.2764 37.7215 38.7447 38.2173 36.2869 38.249C33.5127 38.2595 30.7279 38.249 27.9536 38.249C26.9304 38.2701 25.9705 37.5 25.7701 36.4979C25.6751 36.0971 25.749 35.6857 25.7911 35.2743C26.1076 32.4051 25.5274 29.4409 24.1772 26.8882C22.5844 23.8397 19.8734 21.4135 16.6772 20.1477C13.154 18.7342 9.07174 18.7658 5.58018 20.2637C4.96836 20.5591 4.24051 20.6224 3.6076 20.3481C2.79537 20.0106 2.22575 19.1561 2.24684 18.2701C2.24684 15.8439 2.24684 13.4072 2.24684 10.981C2.27849 8.67091 2.70043 6.27639 3.96625 4.30382C5.00001 2.65825 6.63503 1.42407 8.45992 0.78061C9.41984 0.453606 10.4325 0.232087 11.4452 0.116053ZM12.9009 9.67302C12.3101 9.89453 11.8671 10.4642 11.8249 11.0971C11.7722 11.6561 12.0253 12.2258 12.4578 12.5739C14.7468 14.3988 17.0253 16.2342 19.3144 18.0591C20.443 18.9557 21.7827 19.5781 23.2068 19.8312C25.211 20.2004 27.3418 19.8312 29.1139 18.808C29.9051 18.365 30.5907 17.7532 31.2975 17.1941C33.0485 15.7806 34.8207 14.3882 36.5717 12.9747C36.8987 12.711 37.2679 12.4684 37.4789 12.0886C37.8376 11.4557 37.7426 10.6013 37.2257 10.0844C36.6667 9.48314 35.6435 9.39875 34.9895 9.91563C32.7215 11.73 30.4536 13.5443 28.1857 15.3587C27.5106 15.9177 26.6983 16.308 25.8439 16.4874C24.3355 16.8038 22.7004 16.4346 21.4874 15.4853C19.1772 13.6393 16.8776 11.8038 14.5675 9.95783C14.1034 9.56753 13.4494 9.46204 12.9009 9.67302Z" fill="#F6F6F7"/>
<path d="M9.86288 22.595C12.1308 22.3102 14.4937 22.7321 16.5084 23.8186C19.1772 25.2216 21.2236 27.7321 22.057 30.6329C22.7848 33.1329 22.6055 35.8756 21.5506 38.2595C20.5063 40.6857 18.5654 42.7005 16.192 43.8608C13.808 45.0317 11.0021 45.3165 8.42828 44.6414C5.83334 43.9768 3.49157 42.3524 1.97258 40.1266C0.358657 37.8059 -0.316449 34.8735 0.116041 32.0886C0.474691 29.6203 1.68777 27.2996 3.50212 25.5908C5.24262 23.9557 7.50001 22.8903 9.86288 22.595ZM6.56119 29.1667C5.7595 29.1878 5.07385 29.9367 5.11604 30.7384C5.11604 31.5401 5.84389 32.2469 6.64558 32.2258C8.12237 32.2363 9.58861 32.2258 11.0654 32.2258C11.3924 32.2258 11.7405 32.1836 12.0253 32.0148C12.6477 31.6667 12.943 30.865 12.7004 30.1899C12.4895 29.5675 11.846 29.1351 11.192 29.1562C9.65191 29.1667 8.10127 29.1456 6.56119 29.1667ZM6.56119 35.2954C6.07596 35.3165 5.62237 35.5802 5.35866 35.9916C5.00001 36.519 5.03165 37.2574 5.42195 37.7532C5.72786 38.1646 6.23418 38.3756 6.74051 38.3545C9.58861 38.3545 12.4367 38.3545 15.2954 38.3545C15.7068 38.3545 16.1392 38.3861 16.519 38.1857C17.1941 37.8692 17.5422 37.0148 17.289 36.3186C17.0886 35.7068 16.4663 35.2743 15.8228 35.2848C12.7426 35.2954 9.65191 35.2848 6.56119 35.2954Z" fill="#2D55FB"/>
</g>
<defs>
<clipPath id="clip0_1_249">
<rect width="47.2574" height="45" fill="white"/>
</clipPath>
</defs>
</svg>
