<svg width="48" height="45" viewBox="0 0 48 45" fill="none" xmlns="http://www.w3.org/2000/svg">
<path d="M23.6049 0.0562002C24.4288 -0.196609 25.3464 0.477549 25.3745 1.33897C25.3839 2.90264 25.3745 4.46631 25.3745 6.03935C25.3933 6.68541 24.897 7.30339 24.2603 7.42511C23.4551 7.62174 22.5936 6.95695 22.5749 6.13298C22.5655 4.56931 22.5749 3.00564 22.5655 1.44197C22.5468 0.805264 22.9963 0.215376 23.6049 0.0562002Z" fill="#DF2DB1"/>
<path d="M13.3146 3.33326C13.7921 3.20217 14.3352 3.35198 14.6816 3.70779C15.8989 4.92502 17.1161 6.14224 18.3333 7.35011C18.7172 7.69655 18.9139 8.23962 18.7921 8.74524C18.6798 9.28831 18.2116 9.71902 17.6685 9.81266C17.2285 9.88756 16.7603 9.74711 16.4419 9.43813C15.206 8.20217 13.9794 6.96622 12.7434 5.73962C12.4157 5.43063 12.2285 4.97183 12.2846 4.52239C12.3408 3.9606 12.7622 3.46434 13.3146 3.33326Z" fill="#DF2DB1"/>
<path d="M33.9045 3.33342C34.5131 3.16488 35.2247 3.45515 35.5056 4.03567C35.7959 4.56938 35.6835 5.27163 35.2434 5.69297C33.9981 6.93829 32.7528 8.19297 31.4981 9.43829C30.9925 9.94391 30.1124 9.972 29.588 9.48511C28.9981 8.98885 28.9607 7.99635 29.5225 7.45327C30.7678 6.20796 32.0131 4.96264 33.2584 3.70796C33.4363 3.53005 33.661 3.39897 33.9045 3.33342Z" fill="#DF2DB1"/>
<path d="M13.5768 14.5694C14.9625 13.4177 16.7416 12.7716 18.5393 12.7622C21.3202 12.7622 24.1011 12.7622 26.8727 12.7622C28.0431 12.7248 29.2228 13.015 30.206 13.6611C30.7678 14.0169 31.236 14.5038 31.7041 14.972C33.2303 16.4982 34.7659 18.0338 36.2921 19.56C36.6573 19.9158 37.0225 20.2997 37.2285 20.7772C37.8371 22.0506 37.4625 23.7079 36.3483 24.5787C35.1498 25.5806 33.2303 25.4682 32.1255 24.3915C30.7865 23.0712 29.4757 21.7323 28.1461 20.4121C27.8652 20.1312 27.4719 19.9813 27.0787 19.9813C23.5487 19.972 20.0187 19.9813 16.4888 19.9813C14.9625 21.2641 13.4363 22.5469 11.9007 23.8297C11.3296 24.3165 10.7303 24.766 10.2715 25.3652C8.96067 27.0132 8.64232 29.3821 9.45693 31.3203C10.103 32.9121 11.4794 34.1761 13.1086 34.7098C13.2491 35.5619 13.5487 36.3858 14.0075 37.1162C13.2772 37.0694 12.4064 37.3034 11.8071 36.751C10.6648 35.6368 9.55056 34.4944 8.4176 33.3709C6.26405 33.3615 4.11985 33.3709 1.96629 33.3709C1.5824 33.3709 1.17041 33.4083 0.805243 33.2304C0.365169 33.015 0.0842697 32.5843 0 32.1162V16.8165C0.0842697 16.1237 0.702247 15.5525 1.40449 15.5619C5.11236 15.5619 8.82022 15.5619 12.5281 15.5619C12.8652 15.2248 13.2022 14.8783 13.5768 14.5694Z" fill="#F6F6F7"/>
<path d="M39.1011 18.4739C41.5824 18.4739 44.0543 18.4739 46.5356 18.4739C47.2191 18.4551 47.809 19.0076 47.9401 19.6724V35.0188C47.8465 35.7023 47.2378 36.2735 46.545 36.2641C44.6723 36.2735 42.7996 36.2641 40.927 36.2641C40.7397 36.2735 40.5056 36.2173 40.3652 36.3765C37.2472 38.9982 34.1199 41.6106 31.0019 44.2323C30.2341 44.8971 29.1479 45.1592 28.1648 44.9064C26.9569 44.6162 25.9925 43.5675 25.8146 42.3409C25.6461 41.3952 25.9832 40.4121 26.6011 39.6911C25.9832 40.178 25.3933 40.7023 24.7847 41.1986C24.0824 41.8072 23.1086 42.0787 22.2004 41.9195C20.9738 41.7323 19.9345 40.7491 19.6536 39.5506C19.382 38.4832 19.7285 37.3034 20.515 36.545C19.8315 36.9944 18.9888 37.2285 18.1648 37.0881C16.8914 36.9008 15.8053 35.8615 15.5618 34.5881C15.3464 33.5394 15.7116 32.4064 16.4794 31.6761C15.6742 32.2379 14.6255 32.4533 13.6798 32.1536C12.4157 31.7885 11.47 30.5712 11.4326 29.2604C11.3858 28.2772 11.8352 27.2941 12.603 26.6761C14.1573 25.3933 15.6742 24.0731 17.2378 22.8091C20.3464 22.7997 23.4551 22.7997 26.5637 22.8091C27.5375 23.8016 28.53 24.7847 29.5131 25.7679C29.9251 26.1705 30.309 26.6012 30.7772 26.9383C31.8539 27.7435 33.2116 28.1555 34.5599 28.0993C35.8333 28.0619 37.0787 27.5937 38.0712 26.7978C39.2697 25.8428 40.0843 24.4008 40.2715 22.8746C40.4775 21.3203 40.0375 19.7192 39.1011 18.4739Z" fill="#F6F6F7"/>
</svg>
