<svg width="35" height="45" viewBox="0 0 35 45" fill="none" xmlns="http://www.w3.org/2000/svg">
<g clip-path="url(#clip0_1_225)">
<path d="M1.14246 0H25.1805C25.8309 0.0703125 26.3759 0.650391 26.3671 1.30957C26.3759 12.6211 26.3671 23.9326 26.3671 35.2441C26.3583 35.6045 26.411 36 26.2352 36.334C26.0155 36.8174 25.4882 37.1162 24.9608 37.0898C17.077 37.0898 9.19324 37.0898 1.30945 37.0898C0.606323 37.0986 -0.0177002 36.4746 -0.00012207 35.7803C-0.00012207 24.4688 -0.00012207 13.1572 -0.00012207 1.8457C0.00866699 1.47656 -0.0440674 1.08984 0.131714 0.74707C0.316284 0.351563 0.720581 0.0878906 1.14246 0ZM5.03601 6.70606C4.29773 6.8291 3.77918 7.65527 4.01648 8.37598C4.16589 8.9209 4.71082 9.3252 5.27332 9.31641C7.91004 9.31641 10.5468 9.31641 13.1835 9.31641C13.8866 9.33399 14.5106 8.70117 14.5018 7.99805C14.5194 7.29492 13.8866 6.66211 13.1835 6.67969C10.5731 6.67969 7.97156 6.67969 5.36121 6.67969C5.25574 6.67969 5.14148 6.68848 5.03601 6.70606ZM5.02722 11.9795C4.35925 12.0938 3.85828 12.7881 3.97253 13.4561C4.05164 14.0889 4.6405 14.5986 5.27332 14.5898C10.3973 14.5898 15.5302 14.5898 20.6542 14.5898C20.9706 14.5898 21.3046 14.6162 21.6034 14.4844C22.2098 14.2471 22.5614 13.5176 22.3593 12.9023C22.2098 12.3574 21.6649 11.9531 21.0936 11.9619C15.9696 11.9619 10.8368 11.9619 5.71277 11.9619C5.48425 11.9531 5.25574 11.9443 5.02722 11.9795ZM5.02722 17.2529C4.26257 17.3848 3.74402 18.2637 4.03406 18.9844C4.20984 19.5029 4.72839 19.8633 5.27332 19.8633C10.5204 19.8633 15.7675 19.8633 21.0057 19.8633C21.4628 19.8809 21.9286 19.6611 22.1835 19.2832C22.4735 18.8701 22.4823 18.2988 22.2186 17.8682C21.9725 17.4463 21.4891 17.209 21.0057 17.2266C15.9344 17.2266 10.8632 17.2266 5.80066 17.2266C5.54578 17.2266 5.2821 17.209 5.02722 17.2529ZM5.02722 22.5264C4.35925 22.6406 3.85828 23.335 3.97253 24.0117C4.05164 24.6445 4.6405 25.1455 5.27332 25.1367C10.5204 25.1367 15.7587 25.1367 21.0057 25.1367C21.5331 25.1631 22.0604 24.8643 22.2802 24.3809C22.535 23.8711 22.3944 23.2119 21.9725 22.8428C21.6913 22.5791 21.2958 22.4736 20.9178 22.5C15.8817 22.5 10.8368 22.5 5.80066 22.5C5.54578 22.5 5.2821 22.4824 5.02722 22.5264ZM15.5741 27.7998C14.9061 27.9141 14.4052 28.6084 14.5194 29.2764C14.5985 29.9092 15.1874 30.4189 15.829 30.4102C17.5516 30.4102 19.2831 30.4102 21.0057 30.4102C21.744 30.4629 22.4296 29.8301 22.4208 29.0918C22.4296 28.3975 21.8143 27.7647 21.1112 27.7734C19.4061 27.7734 17.7098 27.7734 16.0048 27.7734C15.8553 27.7734 15.7147 27.7734 15.5741 27.7998Z" fill="#F6F6F7"/>
<path d="M29.0039 7.99814C30.3223 7.99814 31.6494 7.99814 32.9678 7.99814C33.6621 7.98935 34.2861 8.61337 34.2773 9.30771C34.2861 20.7423 34.2773 32.1681 34.2773 43.6026C34.3213 44.2882 33.7764 44.921 33.0996 45.0001H9.10547C8.45508 44.9298 7.91016 44.3497 7.91895 43.6905C7.91016 42.3722 7.91895 41.0538 7.91895 39.7267C13.5439 39.7267 19.1689 39.7267 24.7939 39.7267C25.3828 39.7354 25.9805 39.6651 26.5254 39.4366C27.9932 38.8653 29.0303 37.3448 29.0127 35.7628C29.0127 26.5079 29.0039 17.253 29.0039 7.99814Z" fill="#41E88D"/>
</g>
<defs>
<clipPath id="clip0_1_225">
<rect width="34.2861" height="45" fill="white"/>
</clipPath>
</defs>
</svg>
