<svg width="45" height="45" viewBox="0 0 45 45" fill="none" xmlns="http://www.w3.org/2000/svg">
<g clip-path="url(#clip0_1_213)">
<path d="M37.0547 0H45V13.2363C42.3545 13.2275 39.709 13.2451 37.0547 13.2275C37.0635 8.82422 37.0547 4.41211 37.0547 0Z" fill="#32CAFD"/>
<path d="M3.33105 6.84668C5.25586 5.01855 7.88379 3.97266 10.5381 3.97266C18.4922 3.97266 26.4551 3.97266 34.4092 3.97266C34.4092 5.73926 34.4092 7.49707 34.4092 9.26367C26.6924 9.26367 18.9756 9.26367 11.25 9.26367C10.8457 9.26367 10.4326 9.25488 10.0283 9.29004C8.8418 9.42187 7.69922 9.95801 6.85547 10.8105C5.85352 11.7949 5.28223 13.1924 5.29102 14.5898C5.29102 15.9873 5.87988 17.3672 6.89062 18.3428C7.85742 19.292 9.19336 19.8457 10.5469 19.8545C12.3223 19.8545 14.1064 19.8545 15.8818 19.8545C15.8818 21.6211 15.8818 23.3789 15.8818 25.1455C14.1328 25.1543 12.3838 25.1455 10.6348 25.1455C9.43066 25.1455 8.22656 24.9521 7.08398 24.5479C4.57031 23.6777 2.42578 21.8145 1.19531 19.4502C0.492188 18.123 0.114258 16.6377 0 15.1436V14.2646C0.0703125 11.4785 1.29199 8.74512 3.33105 6.84668Z" fill="#F6F6F7"/>
<path d="M18.5273 15.8818C21.1729 15.8818 23.8184 15.8818 26.4639 15.8818C26.4639 20.2939 26.4639 24.7061 26.4639 29.1182C23.8184 29.1182 21.1729 29.1182 18.5273 29.1182C18.5273 24.7061 18.5273 20.2939 18.5273 15.8818Z" fill="#32CAFD"/>
<path d="M29.1182 19.8545C30.8672 19.8457 32.6162 19.8545 34.3564 19.8545C35.6133 19.8545 36.8701 20.0654 38.0479 20.4961C40.5703 21.4102 42.6973 23.3262 43.8838 25.7256C44.5518 27.0527 44.9121 28.5293 44.9912 30.0146V30.9023C44.8945 32.6689 44.3936 34.4092 43.4619 35.9209C41.9238 38.5137 39.1992 40.3857 36.2109 40.8691C35.1387 41.0713 34.04 41.0186 32.9502 41.0273C25.4971 41.0273 18.0352 41.0273 10.582 41.0273C10.582 39.2607 10.582 37.5029 10.582 35.7363C18.123 35.7363 25.6641 35.7363 33.2139 35.7363C34.1016 35.7275 35.0068 35.7979 35.877 35.5254C37.5732 35.0508 38.9619 33.6709 39.4717 31.9834C39.9287 30.5244 39.7002 28.8633 38.8652 27.5801C38.1006 26.376 36.835 25.5146 35.4287 25.2422C34.8223 25.1104 34.1895 25.1455 33.5742 25.1455C32.0889 25.1455 30.6035 25.1455 29.1182 25.1455C29.1182 23.3789 29.1182 21.6211 29.1182 19.8545Z" fill="#F6F6F7"/>
<path d="M0 31.7637C2.64551 31.7637 5.29102 31.7637 7.94531 31.7725C7.94531 36.1846 7.94531 40.5967 7.94531 45H0V31.7637Z" fill="#32CAFD"/>
</g>
<defs>
<clipPath id="clip0_1_213">
<rect width="45" height="45" fill="white"/>
</clipPath>
</defs>
</svg>
