<svg width="54" height="45" viewBox="0 0 54 45" fill="none" xmlns="http://www.w3.org/2000/svg">
<path d="M25.3541 2.08023C26.9783 1.85361 28.6686 2.10856 30.1416 2.82622C32.1057 3.76106 33.6732 5.48909 34.4098 7.53818C35.3446 10.0689 34.9386 13.0622 33.3428 15.2435C31.9263 17.2737 29.5562 18.6052 27.0822 18.7468C24.6176 18.9357 22.1058 17.9347 20.425 16.1312C19.3296 14.9791 18.5742 13.506 18.2909 11.9385C17.8943 9.91778 18.2909 7.75537 19.3768 6.00845C20.661 3.89326 22.9084 2.40129 25.3541 2.08023Z" fill="white"/>
<path d="M10.9632 9.87055C12.3702 9.6817 13.8433 9.99331 15.0614 10.7393C16.2229 11.4475 17.1388 12.5429 17.6393 13.8177C18.1681 15.168 18.2059 16.6977 17.7432 18.0669C17.1105 20.0027 15.4675 21.5702 13.5033 22.1273C12.0208 22.5523 10.3778 22.4012 8.99912 21.7119C7.64879 21.0414 6.56287 19.8705 5.9963 18.4824C5.44862 17.1699 5.37307 15.659 5.78856 14.2992C6.44956 11.9669 8.56475 10.1538 10.9632 9.87055Z" fill="#B756FE"/>
<path d="M40.5098 9.86104C41.8696 9.70051 43.286 9.9838 44.4663 10.692C45.6561 11.4002 46.6099 12.5145 47.1103 13.8081C47.6863 15.2718 47.6863 16.9526 47.0915 18.4068C46.5343 19.8327 45.4295 21.0225 44.0603 21.7023C43.0594 22.2123 41.9073 22.42 40.7931 22.3445C38.8101 22.2123 36.9404 21.0413 35.9206 19.3416C34.5797 17.2453 34.7214 14.3464 36.2228 12.3728C37.2237 10.9847 38.8101 10.0593 40.5098 9.86104Z" fill="#B756FE"/>
<path d="M21.5298 20.5315C22.1813 20.4749 22.8423 20.4937 23.4939 20.4937C25.9207 20.4937 28.338 20.4937 30.7648 20.4937C32.4457 20.4843 34.117 21.1075 35.3824 22.2218C36.5722 23.2605 37.4031 24.7052 37.6581 26.2633C37.7997 27.0093 37.762 27.7742 37.7714 28.539C37.7714 32.8827 37.7714 37.217 37.7714 41.5607C37.7903 42.0989 37.4692 42.6372 36.9688 42.8638C36.6288 43.0338 36.2322 42.996 35.864 43.0054C29.4712 43.0054 23.0878 43.0054 16.695 43.0054C15.9207 43.0432 15.222 42.3444 15.2692 41.5701C15.2692 36.8865 15.2692 32.1934 15.2692 27.5098C15.2692 25.9895 15.7696 24.4692 16.695 23.2605C17.8471 21.7308 19.6412 20.7204 21.5298 20.5315Z" fill="white"/>
<path d="M4.61766 25.9801C5.84522 24.8375 7.48827 24.1765 9.15965 24.1388C10.4628 24.1199 11.7659 24.1293 13.069 24.1293C12.6535 25.3002 12.4646 26.5372 12.4741 27.7837C12.4741 31.9102 12.4741 36.0273 12.4741 40.1538C12.4835 41.1075 12.3985 42.0801 12.7102 42.9961C11.0765 42.9961 9.45238 42.9961 7.81877 42.9961C7.12945 42.9866 6.44012 43.0244 5.7508 42.9111C4.96704 42.76 4.23994 42.3917 3.65449 41.844C2.85185 41.0886 2.39859 39.9933 2.35138 38.879V30.9376C2.40804 29.0679 3.22956 27.236 4.61766 25.9801Z" fill="#B756FE"/>
<path d="M39.981 24.1292C41.133 24.1198 42.2851 24.1292 43.4276 24.1292C44.1264 24.1292 44.8346 24.1859 45.5051 24.3653C47.0254 24.7619 48.3946 25.7061 49.3294 26.9715C50.1793 28.1141 50.6514 29.5116 50.6892 30.9375V38.8789C50.642 39.5116 50.5192 40.1537 50.217 40.7202C49.6316 41.8723 48.4796 42.7221 47.2048 42.9299C46.5438 43.0337 45.8828 42.996 45.2123 43.0054C43.5787 43.0054 41.9546 43.0054 40.321 43.0054C40.4815 42.486 40.5665 41.9384 40.557 41.3907C40.557 36.792 40.557 32.1934 40.557 27.6042C40.5759 26.4144 40.3682 25.2434 39.981 24.1292Z" fill="#B756FE"/>
</svg>
